<svg enable-background="new 0 0 512.001 512.001" fill="#fff" viewBox="0 0 512.001 512.001" xmlns="http://www.w3.org/2000/svg"><path d="m294.111 256.001 209.998-209.998c10.523-10.524 10.523-27.586 0-38.109-10.524-10.524-27.587-10.524-38.11 0l-209.999 209.998-209.998-209.998c-10.524-10.524-27.586-10.524-38.109 0s-10.524 27.586 0 38.109l209.998 209.998-209.998 209.998c-10.524 10.524-10.524 27.586 0 38.109 10.524 10.524 27.586 10.523 38.109 0l209.998-209.998 209.997 209.998c10.524 10.524 27.587 10.523 38.11 0 10.523-10.524 10.523-27.586 0-38.109z"/></svg>